<svg xmlns="http://www.w3.org/2000/svg" width="16" height="16" fill="currentColor" viewBox="0 0 144 216"><path fill="currentColor" d="M80.0781 215.531C118.75 215.531 143.359 184.875 143.359 136.359C143.359 87.7031 118.891 57.3281 80.0781 57.3281C59.125 57.3281 41.125 67.4531 32.9688 84.1875H30.5781V0.09375H0.34375V213H29.4531V188.812H31.7031C40.8438 205.688 58.7031 215.531 80.0781 215.531ZM71.3594 84.4688C96.9531 84.4688 112.281 104.156 112.281 136.359C112.281 168.844 96.9531 188.391 71.3594 188.391C45.9062 188.391 30.1562 168.562 30.0156 136.5C30.1562 104.438 46.0469 84.4688 71.3594 84.4688Z"/></svg>