<svg width="86.4444px" height="24px" viewBox="0 0 778 216" fill="none" xmlns="http://www.w3.org/2000/svg">
<path d="M232.561 82.6406C254.92 82.6406 269.545 98.25 270.248 122.297H192.904C194.592 98.3906 210.201 82.6406 232.561 82.6406ZM270.107 171.656C264.482 183.609 251.967 190.219 233.686 190.219C209.498 190.219 193.889 173.203 192.904 146.344V144.656H301.045V134.109C301.045 86.0156 275.311 56.9062 232.701 56.9062C189.529 56.9062 162.107 87.9844 162.107 136.922C162.107 185.859 188.967 215.953 232.842 215.953C267.857 215.953 292.607 198.938 299.217 171.656H270.107Z" class="foreground"/>
<path d="M327.246 213H357.481V123.422C357.481 99.5156 371.684 84.6094 394.043 84.6094C416.402 84.6094 427.09 96.8438 427.09 121.453V213H457.324V113.859C457.324 77.4375 438.481 56.9062 404.309 56.9062C381.246 56.9062 366.059 67.1719 358.606 84.1875H356.356V59.8594H327.246V213Z" class="foreground"/>
<path d="M619.51 109.922C615.573 79.2656 592.369 56.9062 553.979 56.9062C509.401 56.9062 482.26 86.8594 482.26 135.938C482.26 185.859 509.541 215.953 554.119 215.953C591.948 215.953 615.573 194.578 619.51 163.781H590.119C586.182 180.234 573.104 188.953 553.979 188.953C528.807 188.953 513.198 169.125 513.198 135.938C513.198 103.312 528.666 83.9062 553.979 83.9062C574.229 83.9062 586.604 95.0156 590.119 109.922H619.51Z" class="foreground"  />
<path d="M645.43 213H675.664V123.562C675.664 100.359 689.446 84.75 714.196 84.75C735.571 84.75 746.961 97.125 746.961 121.594V213H777.196V114.141C777.196 77.7188 757.086 57.0469 724.461 57.0469C701.399 57.0469 685.227 67.3125 677.774 84.4688H675.383V0.09375H645.43V213Z" class="foreground"/>
<path d="M80.0781 215.531C118.75 215.531 143.359 184.875 143.359 136.359C143.359 87.7031 118.891 57.3281 80.0781 57.3281C59.125 57.3281 41.125 67.4531 32.9688 84.1875H30.5781V0.09375H0.34375V213H29.4531V188.812H31.7031C40.8438 205.688 58.7031 215.531 80.0781 215.531ZM71.3594 84.4688C96.9531 84.4688 112.281 104.156 112.281 136.359C112.281 168.844 96.9531 188.391 71.3594 188.391C45.9062 188.391 30.1562 168.562 30.0156 136.5C30.1562 104.438 46.0469 84.4688 71.3594 84.4688Z" fill="currentColor"/>
</svg>
